
<svg width="583px" height="172px" viewBox="0 0 583 172" version="1.1" xmlns="http://www.w3.org/2000/svg" xmlns:xlink="http://www.w3.org/1999/xlink">
    <!-- Generator: Sketch 48.2 (47327) - http://www.bohemiancoding.com/sketch -->
    <desc>Created with Sketch.</desc>
    <defs></defs>
    <g id="Page-1" stroke="none" stroke-width="1" fill="none" fill-rule="evenodd">
        <path d="M304.0693,138.549 L304.0693,124.783 C304.0693,123.133 303.2673,122.472 301.6183,122.472 C299.0253,122.472 296.3393,123.32 293.7933,124.405 L293.7933,125.208 L297.6583,125.208 L297.6583,140.34 C297.6583,146.705 300.3913,149.298 305.2003,149.298 C308.3593,149.298 311.3293,147.836 313.8283,145.526 L313.8283,145.856 C314.0153,148.213 315.3373,149.109 318.2593,149.109 C320.1933,149.109 322.7853,147.978 324.3883,146.61 L324.2943,146.186 L320.6633,146.186 L320.2393,136.945 L320.2393,124.925 C320.2393,123.275 319.3903,122.567 317.6933,122.567 C315.0993,122.567 312.5073,123.37 309.9633,124.406 L309.9633,125.209 L313.8283,125.209 L313.8283,144.065 C312.3663,144.725 311.0473,145.244 309.5383,145.244 C305.7193,145.243 304.0693,143.357 304.0693,138.549 Z M331.6483,125.208 L331.6483,135.909 L331.4593,145.243 C331.4123,146.609 330.9883,147.269 329.4803,147.694 L328.0663,148.024 C328.0663,148.259 328.0663,148.496 328.1603,148.778 L341.7843,148.778 C341.8803,148.543 341.9263,148.213 341.9263,148.024 L339.9003,147.552 C338.6273,147.222 338.2033,146.515 338.2033,145.242 L338.0603,135.908 L338.0603,127.658 C339.5703,126.951 341.1243,126.621 342.5403,126.621 C346.3103,126.621 348.0083,128.363 348.0553,132.984 L348.0553,135.908 L347.8683,145.242 C347.8213,146.608 347.3963,147.268 345.8883,147.693 L344.4743,148.023 C344.4743,148.258 344.4743,148.495 344.5693,148.777 L358.1933,148.777 C358.2873,148.542 358.3353,148.212 358.3353,148.023 L356.3073,147.551 C355.0363,147.221 354.6113,146.514 354.6113,145.241 L354.4693,135.907 L354.4693,131.428 C354.4693,130.061 354.3273,128.883 354.0923,127.846 C355.7893,127.044 357.3923,126.62 358.9953,126.62 C362.7653,126.62 364.4633,128.362 364.5103,132.983 L364.5103,135.907 L364.3233,145.241 C364.2763,146.607 363.8503,147.267 362.3433,147.692 L360.9283,148.022 C360.9283,148.257 360.9283,148.494 361.0243,148.776 L374.6953,148.776 C374.7903,148.541 374.8373,148.211 374.8373,148.022 L372.7623,147.55 C371.4913,147.22 371.0663,146.513 371.0663,145.24 L370.9243,135.905 L370.9243,131.427 C370.9243,125.016 368.1913,122.47 363.3813,122.47 C359.7513,122.47 356.4043,124.45 353.8593,126.996 C352.7273,123.79 350.2763,122.47 346.8813,122.47 C343.5813,122.47 340.5173,124.309 338.0663,126.571 L338.0663,124.78 C338.0663,123.131 337.2643,122.47 335.6153,122.47 C333.0223,122.47 330.3353,123.319 327.7893,124.403 L327.7893,125.206 L331.6483,125.206 L331.6483,125.208 Z M402.3623,135.202 L402.3623,134.069 C402.3623,127.564 399.1563,122.472 391.5663,122.472 C383.9283,122.472 378.6963,129.167 378.6963,136.804 C378.6963,144.959 382.4673,149.249 390.7173,149.249 C395.3843,149.249 399.2983,147.411 401.2313,144.912 L400.9013,144.44 C398.2143,145.43 395.7153,145.713 393.7823,145.713 C388.6433,145.713 385.2023,142.79 384.7783,135.388 L384.7783,135.2 L402.3623,135.2 L402.3623,135.202 Z M391.1893,124.028 C394.9613,124.028 396.3753,127.517 396.3753,133.598 L384.7313,133.598 C384.8723,126.527 387.5123,124.028 391.1893,124.028 Z M416.8823,124.783 C416.8823,123.133 416.0813,122.472 414.4303,122.472 C411.8393,122.472 409.1513,123.32 406.6053,124.404 L406.6053,125.208 L410.4703,125.208 L410.4703,135.909 L410.2833,145.243 C410.2363,146.609 409.8103,147.269 408.3033,147.694 L406.8893,148.024 C406.8893,148.259 406.8893,148.496 406.9843,148.778 L420.6083,148.778 C420.7033,148.543 420.7503,148.213 420.7503,148.024 L418.7233,147.552 C417.4513,147.222 417.0263,146.515 417.0263,145.242 L416.8843,135.908 L416.8843,127.8 C418.7233,126.952 420.3723,126.622 421.8823,126.622 C425.6533,126.622 427.5383,128.365 427.5853,132.985 L427.5853,135.909 L427.3973,145.243 C427.3493,146.609 426.9243,147.269 425.4173,147.694 L424.0043,148.024 C424.0043,148.259 424.0043,148.496 424.0973,148.778 L437.7213,148.778 C437.8163,148.543 437.8643,148.213 437.8643,148.024 L435.8373,147.552 C434.5653,147.222 434.1393,146.515 434.1393,145.242 L433.9983,135.908 L433.9983,131.429 C433.9983,125.018 431.0753,122.472 426.2663,122.472 C422.7793,122.472 419.3833,124.311 416.8853,126.621 L416.8853,124.783 L416.8823,124.783 Z M451.4373,135.909 L451.4373,124.783 C451.4373,123.133 450.6353,122.472 448.9863,122.472 C446.3923,122.472 443.7063,123.32 441.1613,124.404 L441.1613,125.208 L445.0263,125.208 L445.0263,135.909 L444.8383,145.243 C444.7903,146.609 444.3653,147.269 442.8583,147.694 L441.4433,148.024 C441.4433,148.259 441.4433,148.496 441.5383,148.778 L455.1623,148.778 C455.2563,148.543 455.3033,148.213 455.3033,148.024 L453.2773,147.552 C452.0053,147.222 451.5803,146.515 451.5803,145.242 L451.4373,135.909 Z M448.0433,117.853 C448.8923,117.853 451.7213,114.836 451.7213,114.223 C451.7213,113.469 448.7523,110.64 448.0433,110.64 C447.3373,110.64 444.4623,113.375 444.4623,114.223 C444.4623,114.977 447.2893,117.853 448.0433,117.853 Z M469.0693,135.956 C464.0243,136.568 458.7933,138.266 458.7933,143.781 C458.7933,146.845 461.1493,149.203 465.1093,149.203 C468.5493,149.203 471.2373,147.317 473.3593,144.678 L473.3593,145.385 C473.4533,148.025 474.7733,149.109 477.7903,149.109 C479.6303,149.109 482.2223,148.025 483.9203,146.61 L483.8723,146.186 L480.1953,146.186 L479.7693,136.522 L479.7693,129.969 C479.7693,124.028 475.5753,122.52 471.4253,122.52 C467.0893,122.52 462.5633,125.112 460.6763,126.716 L461.1013,127.329 C462.8453,126.339 465.2973,125.725 467.5123,125.725 C470.5763,125.725 473.3593,127.092 473.3593,130.817 L473.3593,135.531 L469.0693,135.956 Z M468.6923,145.479 C466.3813,145.479 465.0133,144.253 465.0133,141.566 C465.0133,139.398 466.4753,138.029 469.4933,137.323 C470.6253,137.041 472.1803,136.852 473.3593,136.664 L473.3593,143.877 C471.6153,144.96 470.1063,145.479 468.6923,145.479 Z" id="Fill-3" fill="#1C3F94"></path>
        <path d="M304.7285,68.8762 C304.7285,67.2262 303.9275,66.5662 302.2785,66.5662 C299.6845,66.5662 296.9995,67.4152 294.4525,68.4992 L294.4525,69.3002 L298.3185,69.3002 L298.3185,80.0022 L298.1295,89.3362 C298.0825,90.7032 297.6585,91.3632 296.1505,91.7882 L294.7365,92.1182 C294.7365,92.3532 294.7365,92.5892 294.8315,92.8722 L308.4545,92.8722 C308.5495,92.6362 308.5965,92.3062 308.5965,92.1182 L306.5705,91.6462 C305.2975,91.3152 304.8735,90.6082 304.8735,89.3352 L304.7315,80.0012 L304.7315,71.8922 C306.5705,71.0442 308.2195,70.7142 309.7285,70.7142 C313.4995,70.7142 315.3845,72.4582 315.4325,77.0782 L315.4325,80.0012 L315.2445,89.3352 C315.1975,90.7022 314.7735,91.3612 313.2645,91.7872 L311.8505,92.1172 C311.8505,92.3522 311.8505,92.5882 311.9455,92.8712 L325.5695,92.8712 C325.6645,92.6352 325.7115,92.3052 325.7115,92.1172 L323.6845,91.6452 C322.4125,91.3142 321.9875,90.6072 321.9875,89.3342 L321.8455,80.0002 L321.8455,75.5212 C321.8455,69.1102 318.9225,66.5632 314.1155,66.5632 C310.6265,66.5632 307.2325,68.4032 304.7335,70.7132 L304.7335,68.8762 L304.7285,68.8762 Z M339.2855,80.0492 C334.2415,80.6622 329.0085,82.3592 329.0085,87.8752 C329.0085,90.9382 331.3655,93.2962 335.3255,93.2962 C338.7655,93.2962 341.4535,91.4102 343.5755,88.7712 L343.5755,89.4792 C343.6695,92.1192 344.9895,93.2032 348.0065,93.2032 C349.8455,93.2032 352.4395,92.1192 354.1355,90.7042 L354.0885,90.2792 L350.4115,90.2792 L349.9865,80.6162 L349.9865,74.0632 C349.9865,68.1232 345.7915,66.6142 341.6415,66.6142 C337.3045,66.6142 332.7795,69.2072 330.8925,70.8102 L331.3185,71.4232 C333.0625,70.4332 335.5125,69.8202 337.7295,69.8202 C340.7925,69.8202 343.5755,71.1872 343.5755,74.9112 L343.5755,79.6262 L339.2855,80.0492 Z M338.9085,89.5722 C336.5975,89.5722 335.2315,88.3452 335.2315,85.6592 C335.2315,83.4902 336.6925,82.1232 339.7095,81.4162 C340.8415,81.1332 342.3975,80.9442 343.5755,80.7562 L343.5755,87.9692 C341.8325,89.0532 340.3225,89.5722 338.9085,89.5722 Z M397.6475,79.1052 C397.6475,70.5732 394.2075,66.6132 387.5585,66.6132 C384.4475,66.6132 382.0895,68.1692 380.2055,69.9132 L380.2055,68.8762 C380.2055,67.2262 379.4035,66.5662 377.7535,66.5662 C375.1605,66.5662 372.4735,67.4152 369.9275,68.4992 L369.9275,69.3002 L373.7935,69.3002 L373.7935,79.5292 L373.4165,99.7082 C373.3695,101.0752 372.9445,101.7342 371.4365,102.1592 L370.0215,102.4882 C370.0215,102.7242 370.0215,102.9602 370.1175,103.2432 L384.0245,103.2432 C384.1185,103.0082 384.1665,102.6782 384.1665,102.4882 L382.1385,102.0182 C380.8665,101.6882 380.4425,100.9802 380.4425,99.7072 L380.3475,93.0122 C381.3375,93.1542 382.3275,93.2482 383.7885,93.2482 C391.4245,93.2492 397.6475,88.7712 397.6475,79.1052 Z M390.9535,80.0022 C390.9535,86.9322 388.8325,91.5052 384.1655,91.5052 C382.4205,91.5052 381.3365,91.2222 380.2995,90.7982 L380.2055,78.8232 L380.2055,70.9972 C381.2905,70.6202 382.9395,69.9602 384.5895,69.9602 C388.7375,69.9602 390.9535,72.3172 390.9535,80.0022 Z M428.5265,79.6722 C428.5265,70.7622 424.0005,66.5662 415.9865,66.5662 C408.6315,66.5662 403.0215,73.5902 403.0215,80.4732 C403.0215,89.3362 407.4065,93.3902 415.5625,93.3902 C423.1525,93.3902 428.5265,86.1782 428.5265,79.6722 Z M421.6905,80.4262 C421.6905,87.4032 420.2765,91.8822 416.0335,91.8822 C411.1305,91.8822 409.8095,86.5082 409.8095,79.4832 C409.8095,72.7432 411.0825,68.0282 415.4665,68.0282 C420.7005,68.0272 421.6905,74.8162 421.6905,80.4262 Z M455.5405,93.2022 C457.4725,93.2022 460.0175,92.0692 461.6675,90.7032 L461.5735,90.2782 L457.9435,90.2782 L457.4715,80.1892 L457.4715,58.8822 C457.4715,57.2322 456.6695,56.5722 455.0195,56.5722 C452.4265,56.5722 449.7405,57.4202 447.1955,58.5522 L447.1955,59.3062 L451.0595,59.3062 L451.0595,66.9432 C450.0235,66.8022 448.7035,66.7072 447.0525,66.7072 C439.6525,66.7072 433.7585,72.1762 433.7585,80.8032 C433.7585,91.2222 439.0855,93.2022 443.9885,93.2022 C446.7215,93.2022 449.2205,91.8352 451.1055,90.2312 C451.3435,92.3542 452.7105,93.2022 455.5405,93.2022 Z M447.0065,89.9962 C443.3305,89.9962 440.1245,86.9322 440.1245,79.1052 C440.1245,71.9392 442.3395,68.1682 447.2425,68.1682 C448.7505,68.1682 449.9295,68.4982 451.0595,69.0162 L451.0595,89.2412 C449.8825,89.6662 448.4675,89.9962 447.0065,89.9962 Z M492.4045,79.1052 C492.4045,70.5732 488.9635,66.6132 482.3165,66.6132 C479.2055,66.6132 476.8465,68.1692 474.9615,69.9132 L474.9615,68.8762 C474.9615,67.2262 474.1605,66.5662 472.5105,66.5662 C469.9175,66.5662 467.2305,67.4152 464.6845,68.4992 L464.6845,69.3002 L468.5505,69.3002 L468.5505,79.5292 L468.1735,99.7082 C468.1265,101.0752 467.7015,101.7342 466.1945,102.1592 L464.7795,102.4882 C464.7795,102.7242 464.7795,102.9602 464.8745,103.2432 L478.7815,103.2432 C478.8755,103.0082 478.9225,102.6782 478.9225,102.4882 L476.8965,102.0182 C475.6235,101.6882 475.1995,100.9802 475.1995,99.7072 L475.1055,93.0122 C476.0945,93.1542 477.0845,93.2482 478.5455,93.2482 C486.1815,93.2492 492.4045,88.7712 492.4045,79.1052 Z M485.7105,80.0022 C485.7105,86.9322 483.5885,91.5052 478.9215,91.5052 C477.1775,91.5052 476.0935,91.2222 475.0565,90.7982 L474.9615,78.8232 L474.9615,70.9972 C476.0465,70.6202 477.6965,69.9602 479.3465,69.9602 C483.4945,69.9602 485.7105,72.3172 485.7105,80.0022 Z M523.2835,79.6722 C523.2835,70.7622 518.7575,66.5662 510.7435,66.5662 C503.3885,66.5662 497.7785,73.5902 497.7785,80.4732 C497.7785,89.3362 502.1645,93.3902 510.3185,93.3902 C517.9095,93.3902 523.2835,86.1782 523.2835,79.6722 Z M516.4475,80.4262 C516.4475,87.4032 515.0335,91.8822 510.7905,91.8822 C505.8875,91.8822 504.5675,86.5082 504.5675,79.4832 C504.5675,72.7432 505.8395,68.0282 510.2235,68.0282 C515.4575,68.0272 516.4475,74.8162 516.4475,80.4262 Z M531.6275,69.3002 L531.6275,80.0022 L531.4405,89.3362 C531.3915,90.7032 530.9675,91.3632 529.4605,91.7882 L528.0455,92.1182 C528.0455,92.3532 528.0455,92.5892 528.1395,92.8722 L541.7645,92.8722 C541.8595,92.6362 541.9065,92.3062 541.9065,92.1182 L539.8795,91.6462 C538.6075,91.3152 538.1825,90.6082 538.1825,89.3352 L538.0415,80.0012 L538.0415,72.5522 C539.3615,71.7512 541.1055,71.0912 543.0395,71.0912 C544.6415,71.0912 546.1495,71.4212 547.5625,72.1752 L549.1665,67.1312 C548.2715,66.8012 547.3755,66.5652 546.1495,66.5652 C542.4715,66.5652 539.5485,68.9692 538.0415,71.6092 L538.0415,68.8752 C538.0415,67.2252 537.2395,66.5652 535.5895,66.5652 C532.9965,66.5652 530.3095,67.4142 527.7635,68.4982 L527.7635,69.2992 L531.6275,69.2992 L531.6275,69.3002 Z M562.0825,82.6432 L562.0825,68.8762 C562.0825,67.2262 561.2795,66.5662 559.6295,66.5662 C557.0375,66.5662 554.3495,67.4152 551.8045,68.4992 L551.8045,69.3002 L555.6695,69.3002 L555.6695,84.4332 C555.6695,90.7972 558.4045,93.3892 563.2125,93.3892 C566.3715,93.3892 569.3415,91.9282 571.8395,89.6182 L571.8395,89.9482 C572.0285,92.3042 573.3485,93.2012 576.2715,93.2012 C578.2065,93.2012 580.7975,92.0682 582.4005,90.7022 L582.3055,90.2772 L578.6755,90.2772 L578.2515,81.0382 L578.2515,69.0162 C578.2515,67.3662 577.4025,66.6592 575.7065,66.6592 C573.1125,66.6592 570.5185,67.4612 567.9745,68.4982 L567.9745,69.2992 L571.8395,69.2992 L571.8395,88.1572 C570.3785,88.8162 569.0585,89.3352 567.5495,89.3352 C563.7315,89.3362 562.0825,87.4502 562.0825,82.6432 Z" id="Fill-5" fill="#1C3F94"></path>
        <path d="M317.2695,4.5359 C317.2695,2.1789 313.6865,0.9999 309.2085,0.9999 C304.0695,0.9999 298.3655,5.2429 298.3655,10.4289 L298.3655,13.0689 L294.5935,13.4929 L294.5935,15.0489 L298.3655,15.0489 L298.3655,24.4299 L298.1765,33.7649 C298.1295,35.1319 297.7055,35.7919 296.1975,36.2159 L294.7835,36.5459 C294.7835,36.7819 294.7835,37.0179 294.8775,37.2999 L308.5495,37.2999 C308.6435,37.0649 308.6915,36.7349 308.6915,36.5459 L306.6645,36.0749 C305.3915,35.7449 304.9675,35.0379 304.9675,33.7649 L304.8255,24.4299 L304.8255,15.0489 L310.4345,15.0489 L310.4345,13.0689 L304.8255,13.0689 L304.8255,10.0989 C304.8255,6.0449 305.3445,2.4149 309.4455,2.4149 C311.5675,2.4149 313.0285,5.1019 314.6315,7.5999 C316.0435,6.9869 317.2695,6.1859 317.2695,4.5359 Z M340.6525,24.0999 C340.6525,15.1899 336.1265,10.9949 328.1125,10.9949 C320.7575,10.9949 315.1475,18.0189 315.1475,24.9019 C315.1475,33.7649 319.5325,37.8189 327.6875,37.8189 C335.2775,37.8189 340.6525,30.6049 340.6525,24.0999 Z M333.8165,24.8539 C333.8165,31.8309 332.4025,36.3089 328.1595,36.3089 C323.2565,36.3089 321.9355,30.9349 321.9355,23.9109 C321.9355,17.1689 323.2085,12.4549 327.5925,12.4549 C332.8265,12.4559 333.8165,19.2449 333.8165,24.8539 Z M355.4075,13.3049 C355.4075,11.6549 354.6065,10.9949 352.9575,10.9949 C350.3635,10.9949 347.6765,11.8429 345.1305,12.9269 L345.1305,13.7289 L348.9965,13.7289 L348.9965,24.4299 L348.8075,33.7649 C348.7605,35.1319 348.3365,35.7919 346.8285,36.2159 L345.4155,36.5459 C345.4155,36.7819 345.4155,37.0179 345.5085,37.2999 L359.1335,37.2999 C359.2275,37.0649 359.2755,36.7349 359.2755,36.5459 L357.2485,36.0749 C355.9755,35.7449 355.5515,35.0379 355.5515,33.7649 L355.4095,24.4299 L355.4095,16.3219 C357.2485,15.4729 358.8985,15.1429 360.4075,15.1429 C364.1775,15.1429 366.0645,16.8879 366.1115,21.5079 L366.1115,24.4299 L365.9225,33.7649 C365.8755,35.1319 365.4515,35.7919 363.9435,36.2159 L362.5295,36.5459 C362.5295,36.7819 362.5295,37.0179 362.6235,37.2999 L376.2485,37.2999 C376.3425,37.0649 376.3895,36.7349 376.3895,36.5459 L374.3635,36.0749 C373.0905,35.7449 372.6655,35.0379 372.6655,33.7649 L372.5245,24.4299 L372.5245,19.9519 C372.5245,13.5399 369.6005,10.9949 364.7935,10.9949 C361.3045,10.9949 357.9105,12.8329 355.4115,15.1429 L355.4115,13.3049 L355.4075,13.3049 Z M402.2205,37.6299 C404.1545,37.6299 406.7005,36.4989 408.3495,35.1319 L408.2555,34.7079 L404.6255,34.7079 L404.1535,24.6189 L404.1535,3.3099 C404.1535,1.6599 403.3515,0.9999 401.7025,0.9999 C399.1095,0.9999 396.4225,1.8489 393.8765,2.9799 L393.8765,3.7349 L397.7425,3.7349 L397.7425,11.3719 C396.7055,11.2299 395.3855,11.1359 393.7355,11.1359 C386.3335,11.1359 380.4405,16.6049 380.4405,25.2319 C380.4405,35.6499 385.7675,37.6299 390.6695,37.6299 C393.4045,37.6299 395.9025,36.2629 397.7895,34.6599 C398.0255,36.7819 399.3925,37.6299 402.2205,37.6299 Z M393.6875,34.4249 C390.0095,34.4249 386.8045,31.3599 386.8045,23.5349 C386.8045,16.3689 389.0195,12.5969 393.9225,12.5969 C395.4315,12.5969 396.6105,12.9269 397.7415,13.4459 L397.7415,33.6699 C396.5625,34.0949 395.1495,34.4249 393.6875,34.4249 Z" id="Fill-7" fill="#1C3F94"></path>
        <g id="Group" fill="#1C3F94">
            <path d="M64.4521,100.8166 L64.4521,14.4866 C64.4521,4.1386 59.4261,0.0006 49.0781,0.0006 C32.8171,0.0006 15.9651,5.3216 0.0001,12.1216 L0.0001,17.1486 L24.2431,17.1486 L24.2431,112.0516 C24.2431,151.9646 41.3911,168.2266 71.5481,168.2266 C91.3561,168.2266 109.9821,159.0606 125.6521,144.5746 L125.6521,146.6436 C126.8341,161.4256 135.1131,167.0436 153.4431,167.0436 C165.5651,167.0436 181.8261,159.9466 191.8781,151.3736 L191.2861,148.7126 L168.5211,148.7126 L165.8601,90.7656 L165.8601,15.3736 C165.8601,5.0256 160.5391,0.5906 149.8951,0.5906 C133.6341,0.5906 117.3741,5.6166 101.4081,12.1216 L101.4081,17.1486 L125.6521,17.1486 L125.6521,135.4086 C116.4871,139.5466 108.2081,142.7996 98.7481,142.7996 C74.8001,142.7996 64.4521,130.9726 64.4521,100.8166" id="Fill-1"></path>
            <path d="M251.145,149.8283 C251.145,144.4833 234.315,128.1873 229.239,128.1873 C224.163,128.1873 207.6,144.2173 207.6,149.8283 C207.6,155.1713 224.163,172.0013 229.239,172.0013 C234.315,172.0013 251.145,154.9023 251.145,149.8283" id="Fill-9"></path>
        </g>
    </g>
</svg>