
<svg width="320px" height="231px" viewBox="0 0 320 231" version="1.1" xmlns="http://www.w3.org/2000/svg" xmlns:xlink="http://www.w3.org/1999/xlink">
    <!-- Generator: Sketch 48.2 (47327) - http://www.bohemiancoding.com/sketch -->
    <desc>Created with Sketch.</desc>
    <defs></defs>
    <g id="Page-1" stroke="none" stroke-width="1" fill="none" fill-rule="evenodd">
        <path d="M30.5902,229.2281 L30.5902,214.4461 L24.8902,222.3881 L21.0902,222.3881 L15.3902,214.4461 L15.3902,229.2281 L9.6902,229.2281 L9.6902,207.9481 C8.2972,207.9481 7.2702,208.2331 6.6122,208.8031 C5.9532,209.3731 5.6242,210.0251 5.6242,210.7601 C5.6242,211.3681 5.8072,211.9071 6.1752,212.3741 C6.5422,212.8431 7.1182,213.0781 7.9042,213.0781 L7.9042,218.3981 C6.5612,218.3981 5.3892,218.1951 4.3892,217.7901 C3.3882,217.3841 2.5652,216.8331 1.9192,216.1371 C1.2732,215.4401 0.7922,214.6291 0.4752,213.7051 C0.1582,212.7801 0.0002,211.7981 0.0002,210.7601 C0.0002,209.5941 0.1962,208.5111 0.5892,207.5111 C0.9822,206.5101 1.5772,205.6491 2.3752,204.9271 C3.1732,204.2051 4.1802,203.6411 5.3962,203.2361 C6.6122,202.8311 8.0432,202.6271 9.6902,202.6271 L13.4902,202.6271 L22.9902,215.9281 L32.4902,202.6271 L36.2902,202.6271 L36.2902,229.2281 L30.5902,229.2281 Z M61.0282,202.6271 L66.7282,202.6271 L66.7282,220.3741 C66.7282,222.0211 66.4302,223.4521 65.8352,224.6671 C65.2402,225.8841 64.4422,226.8971 63.4412,227.7081 C62.4402,228.5191 61.2942,229.1261 60.0022,229.5321 C58.7102,229.9371 57.3802,230.1401 56.0122,230.1401 C54.6442,230.1401 53.3142,229.9371 52.0222,229.5321 C50.7302,229.1261 49.5842,228.5191 48.5832,227.7081 C47.5822,226.8971 46.7842,225.8841 46.1892,224.6671 C45.5932,223.4521 45.2962,222.0211 45.2962,220.3741 L45.2962,202.6271 L50.9962,202.6271 L50.9962,220.7151 C50.9962,221.5011 51.1482,222.1601 51.4522,222.6921 C51.7562,223.2241 52.1552,223.6481 52.6492,223.9651 C53.1432,224.2821 53.6812,224.5031 54.2642,224.6301 C54.8472,224.7561 55.4292,224.8201 56.0122,224.8201 C56.5692,224.8201 57.1462,224.7561 57.7412,224.6301 C58.3362,224.5031 58.8812,224.2821 59.3752,223.9651 C59.8692,223.6481 60.2682,223.2241 60.5722,222.6921 C60.8762,222.1601 61.0282,221.5011 61.0282,220.7151 L61.0282,202.6271 Z M52.5162,200.9941 L51.7562,199.4741 L58.2162,195.9781 L60.2302,198.6761 L52.5162,200.9941 Z M73.7962,229.2281 L73.7962,225.4281 L85.3482,207.9481 L73.7962,207.9481 L73.7962,202.6271 L92.5682,202.6271 L92.5682,206.4281 L81.0162,223.9081 L92.5682,223.9081 L92.5682,229.2281 L73.7962,229.2281 Z M99.9402,229.2281 L99.9402,202.6271 L117.9902,202.6271 L117.9902,207.9481 L105.6402,207.9481 L105.6402,213.2681 L116.0902,213.2681 L116.0902,218.5871 L105.6402,218.5871 L105.6402,223.9081 L117.9902,223.9081 L117.9902,229.2281 L99.9402,229.2281 Z M141.8162,202.6271 L147.5162,202.6271 L147.5162,220.3741 C147.5162,222.0211 147.2182,223.4521 146.6232,224.6671 C146.0282,225.8841 145.2302,226.8971 144.2292,227.7081 C143.2282,228.5191 142.0822,229.1261 140.7902,229.5321 C139.4982,229.9371 138.1682,230.1401 136.8002,230.1401 C135.4322,230.1401 134.1022,229.9371 132.8102,229.5321 C131.5182,229.1261 130.3722,228.5191 129.3712,227.7081 C128.3702,226.8971 127.5722,225.8841 126.9772,224.6671 C126.3822,223.4521 126.0842,222.0211 126.0842,220.3741 L126.0842,202.6271 L131.7842,202.6271 L131.7842,220.7151 C131.7842,221.5011 131.9362,222.1601 132.2402,222.6921 C132.5442,223.2241 132.9432,223.6481 133.4372,223.9651 C133.9312,224.2821 134.4692,224.5031 135.0522,224.6301 C135.6352,224.7561 136.2172,224.8201 136.8002,224.8201 C137.3582,224.8201 137.9342,224.7561 138.5292,224.6301 C139.1242,224.5031 139.6692,224.2821 140.1632,223.9651 C140.6572,223.6481 141.0562,223.2241 141.3602,222.6921 C141.6642,222.1601 141.8162,221.5011 141.8162,220.7151 L141.8162,202.6271 Z M177.4222,229.2281 L177.4222,214.4461 L171.7222,222.3881 L167.9222,222.3881 L162.2222,214.4461 L162.2222,229.2281 L156.5222,229.2281 L156.5222,202.6271 L160.3212,202.6271 L169.8222,215.9281 L179.3222,202.6271 L183.1222,202.6271 L183.1222,229.2281 L177.4222,229.2281 Z M201.6282,222.3121 C202.0592,222.7171 202.5602,223.0721 203.1292,223.3751 C203.6992,223.6801 204.3012,223.9401 204.9342,224.1551 C205.5682,224.3711 206.2202,224.5351 206.8912,224.6491 C207.5632,224.7631 208.2282,224.8201 208.8862,224.8201 C209.4942,224.8201 210.0892,224.7631 210.6722,224.6491 C211.2552,224.5351 211.7872,224.3511 212.2692,224.0981 C212.7492,223.8441 213.1362,223.5021 213.4272,223.0721 C213.7182,222.6411 213.8642,222.1091 213.8642,221.4761 C213.8642,220.8931 213.7322,220.4311 213.4652,220.0891 C213.1992,219.7471 212.8382,219.4811 212.3822,219.2901 C211.9262,219.1011 211.4012,218.9611 210.8062,218.8731 C210.2102,218.7851 209.5832,218.6891 208.9242,218.5871 C207.5312,218.3601 206.2452,218.0821 205.0682,217.7511 C203.8902,217.4221 202.8632,216.9661 201.9892,216.3841 C201.1152,215.8011 200.4322,215.0541 199.9382,214.1421 C199.4442,213.2301 199.1962,212.0901 199.1962,210.7221 C199.1962,209.2271 199.4872,207.9161 200.0702,206.7891 C200.6532,205.6621 201.4192,204.7241 202.3692,203.9771 C203.3192,203.2301 204.4152,202.6661 205.6562,202.2861 C206.8982,201.9061 208.1642,201.7151 209.4562,201.7151 C211.2042,201.7151 212.9462,202.0331 214.6822,202.6661 C216.4162,203.2991 217.9432,204.1861 219.2602,205.3261 L216.1072,209.6201 C215.3462,208.8341 214.3642,208.2071 213.1612,207.7391 C211.9582,207.2701 210.7482,207.0361 209.5322,207.0361 C208.9752,207.0361 208.4242,207.0931 207.8792,207.2071 C207.3342,207.3211 206.8402,207.5041 206.3982,207.7581 C205.9542,208.0111 205.5932,208.3531 205.3152,208.7841 C205.0352,209.2141 204.8972,209.7341 204.8972,210.3421 C204.8972,210.8741 205.0042,211.3111 205.2192,211.6531 C205.4352,211.9951 205.7332,212.2671 206.1122,212.4701 C206.4922,212.6721 206.9232,212.8251 207.4042,212.9261 C207.8862,213.0271 208.3922,213.1281 208.9242,213.2301 C210.6722,213.5341 212.2112,213.8821 213.5412,214.2751 C214.8712,214.6671 215.9862,215.1561 216.8852,215.7381 C217.7842,216.3211 218.4562,217.0421 218.9002,217.9041 C219.3432,218.7651 219.5652,219.8301 219.5652,221.0961 C219.5652,222.6161 219.2672,223.9401 218.6712,225.0671 C218.0752,226.1941 217.2772,227.1381 216.2772,227.8981 C215.2772,228.6581 214.1302,229.2221 212.8382,229.5891 C211.5462,229.9571 210.2032,230.1401 208.8102,230.1401 C206.8602,230.1401 204.9792,229.8111 203.1672,229.1521 C201.3562,228.4941 199.7912,227.6201 198.4752,226.5301 L201.6282,222.3121 Z M227.4302,229.2281 L227.4302,202.6271 L238.2602,202.6271 C239.4262,202.6271 240.5402,202.7991 241.6052,203.1411 C242.6682,203.4831 243.6002,204.0151 244.3982,204.7371 C245.1952,205.4581 245.8282,206.3711 246.2972,207.4731 C246.7662,208.5751 247.0002,209.8861 247.0002,211.4061 C247.0002,212.9261 246.7732,214.2371 246.3172,215.3391 C245.8612,216.4411 245.2342,217.3401 244.4352,218.0381 C243.6372,218.7341 242.7132,219.2521 241.6612,219.5951 C240.6102,219.9371 239.4772,220.1081 238.2602,220.1081 L233.1302,220.1081 L233.1302,229.2281 L227.4302,229.2281 Z M238.2602,214.7881 C238.6412,214.7881 239.0142,214.7501 239.3812,214.6741 C239.7492,214.5981 240.0782,214.4461 240.3692,214.2181 C240.6602,213.9901 240.8892,213.6541 241.0532,213.2101 C241.2182,212.7671 241.3002,212.1661 241.3002,211.4061 C241.3002,210.6461 241.2182,210.0441 241.0532,209.6011 C240.8892,209.1581 240.6672,208.8091 240.3882,208.5561 C240.1102,208.3021 239.7862,208.1381 239.4192,208.0621 C239.0522,207.9861 238.6652,207.9481 238.2602,207.9481 L233.1302,207.9481 L233.1302,214.7881 L238.2602,214.7881 Z M254.2202,229.2281 L259.9202,229.2281 L259.9202,202.6271 L254.2202,202.6271 L254.2202,229.2281 Z M270.5602,222.3121 C270.9912,222.7171 271.4912,223.0721 272.0612,223.3751 C272.6312,223.6801 273.2332,223.9401 273.8662,224.1551 C274.4992,224.3711 275.1522,224.5351 275.8232,224.6491 C276.4942,224.7631 277.1592,224.8201 277.8192,224.8201 C278.4262,224.8201 279.0222,224.7631 279.6052,224.6491 C280.1872,224.5351 280.7192,224.3511 281.2002,224.0981 C281.6822,223.8441 282.0682,223.5021 282.3602,223.0721 C282.6512,222.6411 282.7962,222.1091 282.7962,221.4761 C282.7962,220.8931 282.6632,220.4311 282.3982,220.0891 C282.1312,219.7471 281.7712,219.4811 281.3152,219.2901 C280.8592,219.1011 280.3322,218.9611 279.7372,218.8731 C279.1422,218.7851 278.5152,218.6891 277.8572,218.5871 C276.4632,218.3601 275.1772,218.0821 273.9992,217.7511 C272.8212,217.4221 271.7952,216.9661 270.9212,216.3841 C270.0472,215.8011 269.3632,215.0541 268.8692,214.1421 C268.3752,213.2301 268.1282,212.0901 268.1282,210.7221 C268.1282,209.2271 268.4192,207.9161 269.0022,206.7891 C269.5852,205.6621 270.3512,204.7241 271.3012,203.9771 C272.2512,203.2301 273.3472,202.6661 274.5882,202.2861 C275.8292,201.9061 277.0972,201.7151 278.3882,201.7151 C280.1362,201.7151 281.8782,202.0331 283.6132,202.6661 C285.3492,203.2991 286.8752,204.1861 288.1932,205.3261 L285.0382,209.6201 C284.2782,208.8341 283.2962,208.2071 282.0932,207.7391 C280.8902,207.2701 279.6812,207.0361 278.4642,207.0361 C277.9072,207.0361 277.3562,207.0931 276.8112,207.2071 C276.2672,207.3211 275.7732,207.5041 275.3292,207.7581 C274.8862,208.0111 274.5252,208.3531 274.2462,208.7841 C273.9682,209.2141 273.8282,209.7341 273.8282,210.3421 C273.8282,210.8741 273.9362,211.3111 274.1522,211.6531 C274.3662,211.9951 274.6642,212.2671 275.0442,212.4701 C275.4242,212.6721 275.8552,212.8251 276.3362,212.9261 C276.8182,213.0271 277.3242,213.1281 277.8572,213.2301 C279.6052,213.5341 281.1442,213.8821 282.4742,214.2751 C283.8032,214.6671 284.9182,215.1561 285.8182,215.7381 C286.7172,216.3211 287.3882,217.0421 287.8312,217.9041 C288.2752,218.7651 288.4962,219.8301 288.4962,221.0961 C288.4962,222.6161 288.1982,223.9401 287.6042,225.0671 C287.0082,226.1941 286.2102,227.1381 285.2092,227.8981 C284.2092,228.6581 283.0632,229.2221 281.7712,229.5891 C280.4792,229.9571 279.1362,230.1401 277.7422,230.1401 C275.7912,230.1401 273.9102,229.8111 272.1002,229.1521 C270.2882,228.4941 268.7242,227.6201 267.4062,226.5301 L270.5602,222.3121 Z M275.9942,200.7281 L272.5742,197.0041 L275.0822,197.0041 L278.0842,199.0941 L281.0862,197.0041 L283.6702,197.0041 L280.2502,200.7281 L275.9942,200.7281 Z M313.8432,229.2281 L311.9042,224.6671 L301.4542,224.6671 L299.5542,229.2281 L293.5122,229.2281 L304.7982,202.6271 L308.5992,202.6271 L319.8842,229.2281 L313.8432,229.2281 Z M308.2562,215.9281 L306.6982,210.3041 L305.1412,215.9281 L303.6962,219.3481 L309.7002,219.3481 L308.2562,215.9281 Z" id="Fill-12" fill="#8F5F75"></path>
        <g id="Group" transform="translate(89.000000, -1.000000)">
            <path d="M21.202,39.7218 L45.933,63.0178 C40.664,67.9458 37.64,76.9908 37.64,84.0228 L3.788,88.6328 L0.301,60.0348 L21.202,39.7218 Z" id="Fill-1" fill="#ECC2C3"></path>
            <path d="M63.4666,148.5787 L65.9916,114.6807 C79.2666,115.8127 92.0036,107.7087 96.9206,95.5177 L128.4146,108.3177 C124.2186,118.6677 117.4976,127.7107 108.9166,134.5927 L115.1676,143.7007 L114.0846,145.7057 L115.6186,148.0167 C115.3526,148.5577 115.0226,149.3787 114.7496,149.9157 L115.7936,152.9217 C116.9356,152.6747 118.1076,152.6797 118.8996,153.9027 C119.6266,155.0247 118.8356,156.2277 117.7586,157.3987 L118.1786,158.0097 C118.1966,158.0337 118.1886,158.0307 118.2186,158.0297 C118.6086,158.0167 118.9216,158.1217 119.0786,158.3557 C119.3146,158.7087 119.1276,159.3287 118.6996,159.8597 L119.0266,160.3127 C119.5226,160.3197 120.0476,160.5487 120.3306,160.9677 C120.7206,161.5457 120.6076,162.3607 120.1496,162.9047 L120.4056,163.2997 C120.6896,163.2807 121.0126,163.3937 121.1746,163.6347 C121.3666,163.9167 121.3086,164.3327 121.1106,164.6117 L122.9156,167.3257 L122.1826,167.8017 L120.3276,165.1217 C119.9946,165.2027 119.5876,165.1017 119.3946,164.8207 C119.2316,164.5807 119.2456,164.2387 119.3676,163.9807 L119.0956,163.5977 C118.4216,163.8217 117.6216,163.6267 117.2286,163.0507 C116.9436,162.6327 116.9246,162.0607 117.1016,161.5977 L116.8006,161.1257 C116.1496,161.3267 115.5046,161.2727 115.2636,160.9227 C115.1036,160.6887 115.1226,160.3597 115.2786,160.0037 C115.2916,159.9757 115.2906,159.9837 115.2736,159.9587 L114.8626,159.3437 C113.3766,159.9117 111.9666,160.2017 111.1916,159.1127 C110.3466,157.9237 110.7746,156.8337 111.4256,155.8627 L109.0186,153.7827 C108.4196,153.8387 107.5336,153.8427 106.9326,153.8897 L105.3516,151.6097 L103.0896,151.8767 L96.6106,142.3677 C96.6076,142.3697 96.6036,142.3717 96.6016,142.3727 C88.0786,146.4977 78.5136,148.8097 68.4096,148.8097 C66.7556,148.8097 65.0906,148.7007 63.4666,148.5787" id="Fill-3" fill="#FEAD87"></path>
            <path d="M86.4183,21.8663 C97.6813,25.1873 107.8023,31.5333 115.6183,39.7573 L90.8733,63.0393 C85.2633,57.0423 77.2503,53.2733 68.3903,53.2733 C59.5303,53.2733 51.5443,57.0213 45.9333,63.0173 L21.2023,39.7213 C29.0913,31.4203 39.3053,25.0553 50.6843,21.7693 L49.8593,19.7343 L56.4213,17.3673 C60.3473,15.9533 59.4233,14.5683 61.5973,12.8353 C61.5973,12.3603 61.5823,11.8713 61.6033,11.3993 L60.0333,9.9823 C60.3633,8.3703 61.2073,6.9293 62.3983,5.8143 C63.8273,4.4763 65.7573,3.6083 67.9023,3.4753 L67.9023,0.9993 L69.2273,0.9993 L69.2273,3.4753 C71.3723,3.6083 73.3033,4.4763 74.7313,5.8143 C75.9233,6.9293 76.7673,8.3703 77.0963,9.9823 L75.5263,11.3993 C75.5473,11.8713 75.5323,12.3603 75.5323,12.8353 C77.7063,14.5683 76.8113,15.8773 80.7083,17.3673 C82.8103,18.1713 85.2803,19.1613 87.2563,19.8653 L86.4183,21.8663 Z" id="Fill-5" fill="#8F5F75"></path>
            <path d="M128.4144,108.3175 L96.9204,95.5185 C101.4844,85.1755 98.8114,71.0405 90.8504,63.0155 L115.6184,39.7575 L131.0734,53.6975 L130.4314,60.2325 L133.6234,58.9105 C134.3644,62.7235 140.2614,64.3915 141.4934,70.8035 C142.7824,77.5055 137.6664,80.6585 138.3374,84.5235 L134.7274,83.7165 L135.8374,91.2105 L128.4144,108.3175 Z" id="Fill-8" fill="#F38C75"></path>
            <path d="M69.6688,142.564 L69.6278,126.562 C68.1288,126.569 66.3338,126.506 65.1538,126.375 L65.9918,114.681 C50.1298,113.457 37.6408,100.198 37.6408,84.023 L3.7878,88.633 C6.3268,120.811 31.7478,146.186 63.4668,148.579 L63.9468,142.436 C65.8558,142.626 67.7578,142.626 69.6688,142.564" id="Fill-10" fill="#FFD1AF"></path>
        </g>
    </g>
</svg>