<svg xmlns="http://www.w3.org/2000/svg" viewBox="0 0 56 300" width="56" height="300">
	<g fill="none" stroke="rgba(0, 0, 0, .4)" stroke-width="1" stroke-linecap="square">
		<g transform="translate(0 -2)">
		    <polygon points="39.5 44.5 39.5 28.5 43.5 28.5 43.5 26.5 28 11 12.5 26.5 12.5 28.5 16.5 28.5 16.5 44.5"></polygon>
		</g>
		<g transform="translate(0 60)">
		    <path d="M14,15 L41,42" />
    		<path d="M41,15 L14,42" />
		</g>
		<g transform="translate(0 120)">
			<polyline points="33 44 19 29 34 13" />
		</g>
		<g transform="translate(0 180)">
			<polyline points="22 13 37 29 23 44 23 44" />
		</g>
		<g transform="translate(16 262)">
			<polyline points="15 30 1 15.4545455 16 0" />
			<path d="M1.5,15.5 L40.5,15.5" />
		</g>
	</g>
</svg>
