<svg xmlns="http://www.w3.org/2000/svg" xmlns:data="data" viewBox="0 0 600 96" width="600" height="96">
	<g fill="rgba(255, 255, 255, .5)">
		<g data:icon="fauna" >
	        <path d="M23.12,82 L0,82 L0,96 L56,96 L56,79.26 C54.70,78.96 53.76,78.81 53.16,78.81 C52.27,78.81 51.12,78.49 50.16,78.30 C49.53,78.17 48.93,78.17 48.38,78.30 C48.38,77.28 48.42,76.41 48.51,75.68 C48.63,74.60 49.02,74.54 48.76,72.37 C48.51,70.20 48.25,68.54 47.04,64.78 C45.83,61.02 45.13,59.68 44.36,58.08 C43.60,56.49 42.13,55.08 40.79,54.32 C39.45,53.55 38.17,53.30 36.77,52.47 C35.37,51.64 34.67,50.56 34.28,49.73 C33.90,48.90 33.84,48.20 33.77,47.62 C33.71,47.05 33.14,46.35 32.69,45.84 C32.24,45.33 31.67,44.94 31.10,43.86 C30.71,43.14 30.01,42.48 28.99,41.88 C29.16,41.50 29.25,41.14 29.25,40.80 C29.25,40.29 29.25,40.16 28.99,39.33 C28.82,38.78 28.91,38.08 29.25,37.23 C29.50,36.59 29.71,36.16 29.88,35.95 C30.05,35.74 30.13,35.42 30.10,35 C29.74,35.14 29.46,35.30 29.25,35.47 C28.93,35.73 28.44,36.37 28.31,36.76 C28.19,37.14 27.46,37.55 27.08,37.86 C26.70,38.18 25.61,39.08 25.42,39.46 C25.29,39.71 25.19,40.08 25.10,40.54 C24.80,40.46 24.31,40.46 23.63,40.54 C22.61,40.67 21.67,40.99 20.89,41.31 C20.11,41.63 19.49,42.20 19.17,42.78 C18.85,43.35 18.40,43.92 17.83,44.18 C17.26,44.43 16.17,44.82 15.85,45.14 C15.53,45.45 15.66,46.03 15.85,46.22 C16.04,46.41 16.36,46.86 16.30,47.24 C16.24,47.62 16.55,48.01 16.94,48.45 C17.19,48.75 17.43,48.92 17.64,48.96 C17.55,49.39 17.70,49.79 18.09,50.17 C18.66,50.75 19.17,50.56 19.49,50.30 C19.81,50.05 20.19,49.92 20.76,50.05 C21.15,50.13 21.36,50.43 21.40,50.94 L21.98,50.56 L21.98,51.70 L22.55,51.58 L22.42,52.47 L22.80,52.02 L22.80,53.30 L23.12,52.92 C23.38,54.57 23.49,55.79 23.44,56.55 C23.38,57.70 22.61,60.19 22.80,61.27 C23.00,62.36 24.27,64.14 25.10,65.10 C25.93,66.05 26.63,67.20 27.08,68.54 C27.52,69.88 27.78,71.48 27.65,73.32 C27.52,75.17 26.76,77.47 26.50,77.92 C26.25,78.36 25.87,78.49 25.42,78.49 C24.97,78.49 24.59,78.49 24.27,78.81 C23.95,79.13 23.89,79.96 23.63,80.28 C23.38,80.59 22.50,81.07 23.12,82 Z" />
		</g>
		<g data:icon="flora" transform="translate(100 0)">
			<path d="M3.41,78.24 C0.10,78.17 0.20,78.12 0.29,78.08 C2.93,76.95 5.95,75.42 10.23,75.07 C10.00,74.13 9.82,73.38 9.72,73.01 C6.43,59.83 13.11,54.02 22.17,52.14 C24.10,51.74 25.28,51.52 26.81,51.31 C32.03,50.61 33.33,48 33.33,48 C33.33,48 39.02,53.97 30.23,60.93 C21.44,67.89 12.16,68.61 12.16,68.61 C12.16,68.61 11.19,63.49 18.88,60.20 C21.01,59.28 21.89,58.98 21.76,58.73 C21.64,58.47 20.72,58.58 18.51,59.47 C9.36,63.13 10.74,69.82 11.68,72.58 C11.88,73.16 12.22,74.01 12.64,75.00 C15.46,75.07 18.77,75.66 22.77,77.08 C33.02,80.74 52.84,80.14 56,80.02 L56,96 L0,96 L0,78.24 L3.41,78.24 Z" />
		</g>
		<g data:icon="reserves" transform="translate(200 0)">
	        <path d="M7.03,73.96 C4.82,74.27 2.47,74.61 0,75 L0,96 L56,96 L56,75 C49.16,73.94 43.33,73.16 38.51,72.67 L36.02,68.51 L37.51,67.65 L32.81,59.83 L34.31,58.95 L31.37,54 L26.67,61.73 L28.51,62.82 L23.30,72 L22.90,72 L25.70,64.51 L20.97,52.81 L23.30,51.87 L16.95,36 L12.31,47.48 L14.64,48.42 L9.23,61.80 L11.56,62.74 L7.03,73.96 L7.03,73.96 Z" />
		</g>
		<g data:icon="waters" transform="translate(300 0)">
			<path d="M56,72.04 C55.54,72.09 55.07,72.12 54.59,72.12 C50.82,72.12 47.54,69.45 45.83,67 C44.12,69.45 40.84,72.12 37.07,72.12 C33.30,72.12 30.02,69.45 28.31,67 C26.60,69.45 23.32,72.12 19.55,72.12 C15.78,72.12 12.49,69.45 10.79,67 C9.08,69.45 5.80,72.12 2.03,72.12 C1.33,72.12 0.65,72.03 0,71.87 L0,96 L56,96 L56,72.04 Z" />
	    </g>
		<g data:icon="geology" transform="translate(400 0)">
	        <polygon points="0 69 9.94 70 11.11 67 30.62 67 36.85 86.98 34 70 56 70 56 96 0 96" />
		</g>
		<g data:icon="all" transform="translate(500 0)">
	        <path d="M0,70.07 L0,96 L56,96 L56,74 L35,74 L31,73 L30,69 L21.5,66 L21,62 L18,62 L17.5,66 L13.5,66 L13,64 L8,64 L7.5,66 L4,66 L4,69 L0,70.07 Z" />
		</g>
	</g>
</svg>
