<svg xmlns="http://www.w3.org/2000/svg" xmlns:data="data" viewBox="0 0 500 96" width="500" height="96">
	<g fill="rgba(255, 255, 255, .5)">
		<g data:icon="fauna" >
	        <rect x="0" y="72" width="56" height="24" />
		</g>
		<g data:icon="flora" transform="translate(100 0)">
			<path d="M3.41,78.24 C0.10,78.17 0.20,78.12 0.29,78.08 C2.93,76.95 5.95,75.42 10.23,75.07 C10.00,74.13 9.82,73.38 9.72,73.01 C6.43,59.83 13.11,54.02 22.17,52.14 C24.10,51.74 25.28,51.52 26.81,51.31 C32.03,50.61 33.33,48 33.33,48 C33.33,48 39.02,53.97 30.23,60.93 C21.44,67.89 12.16,68.61 12.16,68.61 C12.16,68.61 11.19,63.49 18.88,60.20 C21.01,59.28 21.89,58.98 21.76,58.73 C21.64,58.47 20.72,58.58 18.51,59.47 C9.36,63.13 10.74,69.82 11.68,72.58 C11.88,73.16 12.22,74.01 12.64,75.00 C15.46,75.07 18.77,75.66 22.77,77.08 C33.02,80.74 52.84,80.14 56,80.02 L56,96 L0,96 L0,78.24 L3.41,78.24 Z" />
		</g>
		<g data:icon="reserves" transform="translate(200 0)">
			<rect data:icon="reserves" x="0" y="72" width="56" height="24" />
		</g>
		<g data:icon="waters" transform="translate(300 0)">
			<path d="M56,72.04 C55.54,72.09 55.07,72.12 54.59,72.12 C50.82,72.12 47.54,69.45 45.83,67 C44.12,69.45 40.84,72.12 37.07,72.12 C33.30,72.12 30.02,69.45 28.31,67 C26.60,69.45 23.32,72.12 19.55,72.12 C15.78,72.12 12.49,69.45 10.79,67 C9.08,69.45 5.80,72.12 2.03,72.12 C1.33,72.12 0.65,72.03 0,71.87 L0,96 L56,96 L56,72.04 Z" />
	    </g>
		<g data:icon="geology" transform="translate(400 0)">
	        <polygon points="0 69 9.94 70 11.11 67 30.62 67 36.85 86.98 34 70 56 70 56 96 0 96" />
		</g>
	</g>
</svg>
