<svg xmlns="http://www.w3.org/2000/svg" viewBox="0 0 56 450" width="56" height="450">
	<g fill="none" stroke="rgba(0, 0, 0, .4)" stroke-width="1" stroke-linecap="square">
		<g transform="translate(0 -2)">
		    <polygon points="39.5 44.5 39.5 28.5 43.5 28.5 43.5 26.5 28 11 12.5 26.5 12.5 28.5 16.5 28.5 16.5 44.5"></polygon>
		</g>
		<g transform="translate(0 60)">
		    <path d="M14,15 L41,42" />
    		<path d="M41,15 L14,42" />
		</g>
		<g transform="translate(0 120)">
			<polyline points="33 44 19 29 34 13" />
		</g>
		<g transform="translate(0 180)">
			<polyline points="22 13 37 29 23 44 23 44" />
		</g>
		<g transform="translate(18 262)">
			<polyline points="15 30 1 15.4545455 16 0" />
			<path d="M1.5,15.5 L40.5,15.5" />
		</g>
		<g transform="translate(12 322)">
			<path d="M15,23 L15,13 L16.5,13 L16.5,23 L15,23 Z M16,10.0317337 C15.4477153,10.0317337 15,9.57691465 15,9.01586687 C15,8.45481909 15.4477153,8 16,8 C16.5522847,8 17,8.45481909 17,9.01586687 C17,9.57691465 16.5522847,10.0317337 16,10.0317337 Z" stroke="none" fill="rgba(0, 0, 0, .4)" />
			<circle cx="16" cy="16" r="15.4" />
		</g>
		<g transform="translate(14 384)">
			<path d="M9.67,0.53 L0.5,3.73 L0.5,26.25 L9.67,23.054 L19.33,26.43 L28.5,23.23 L28.5,0.7 L19.33,3.9 L9.67,0.53 Z" />
		</g>
	</g>
</svg>
